<svg width="26" height="26" viewBox="0 0 26 26" fill="none" xmlns="http://www.w3.org/2000/svg">
<circle cx="13" cy="13" r="12.8304" fill="white" stroke="#235E4A" stroke-width="0.33913"/>
<path d="M8.32061 13.4214L13.9806 19.0714C14.0736 19.1651 14.1842 19.2395 14.306 19.2903C14.4279 19.341 14.5586 19.3672 14.6906 19.3672C14.8226 19.3672 14.9533 19.341 15.0752 19.2903C15.197 19.2395 15.3077 19.1651 15.4006 19.0714C15.5869 18.884 15.6914 18.6306 15.6914 18.3664C15.6914 18.1022 15.5869 17.8488 15.4006 17.6614L10.4506 12.6614L15.4006 7.71139C15.5869 7.52403 15.6914 7.27058 15.6914 7.00639C15.6914 6.7422 15.5869 6.48875 15.4006 6.30139C15.308 6.2069 15.1976 6.13173 15.0757 6.08023C14.9538 6.02874 14.8229 6.00194 14.6906 6.00139C14.5583 6.00194 14.4274 6.02874 14.3055 6.08023C14.1837 6.13173 14.0732 6.2069 13.9806 6.30139L8.32061 11.9514C8.21911 12.045 8.1381 12.1587 8.08269 12.2852C8.02729 12.4117 7.99868 12.5483 7.99868 12.6864C7.99868 12.8245 8.02729 12.9611 8.08269 13.0876C8.1381 13.2141 8.21911 13.3277 8.32061 13.4214Z" fill="#235E4A"/>
<path d="M8.32061 13.4214L13.9806 19.0714C14.0736 19.1651 14.1842 19.2395 14.306 19.2903C14.4279 19.341 14.5586 19.3672 14.6906 19.3672C14.8226 19.3672 14.9533 19.341 15.0752 19.2903C15.197 19.2395 15.3077 19.1651 15.4006 19.0714C15.5869 18.884 15.6914 18.6306 15.6914 18.3664C15.6914 18.1022 15.5869 17.8488 15.4006 17.6614L10.4506 12.6614L15.4006 7.71139C15.5869 7.52403 15.6914 7.27058 15.6914 7.00639C15.6914 6.7422 15.5869 6.48875 15.4006 6.30139C15.308 6.2069 15.1976 6.13173 15.0757 6.08023C14.9538 6.02874 14.8229 6.00194 14.6906 6.00139C14.5583 6.00194 14.4274 6.02874 14.3055 6.08023C14.1837 6.13173 14.0732 6.2069 13.9806 6.30139L8.32061 11.9514C8.21911 12.045 8.1381 12.1587 8.08269 12.2852C8.02729 12.4117 7.99868 12.5483 7.99868 12.6864C7.99868 12.8245 8.02729 12.9611 8.08269 13.0876C8.1381 13.2141 8.21911 13.3277 8.32061 13.4214Z" fill="#235E4A"/>
</svg>
