<svg width="17" height="15" viewBox="0 0 17 15" fill="none" xmlns="http://www.w3.org/2000/svg">
<path opacity="0.4" d="M11.7326 0.710938H14.5543C15.7228 0.710938 16.6697 1.49695 16.6697 2.46697V4.80923C16.6697 5.77926 15.7228 6.56526 14.5543 6.56526H11.7326C10.5641 6.56526 9.61719 5.77926 9.61719 4.80923V2.46697C9.61719 1.49695 10.5641 0.710938 11.7326 0.710938Z" fill="#009D00"/>
<path fill-rule="evenodd" clip-rule="evenodd" d="M2.11544 0.710938H4.93708C6.10563 0.710938 7.05251 1.49695 7.05251 2.46697V4.80923C7.05251 5.77926 6.10563 6.56526 4.93708 6.56526H2.11544C0.94688 6.56526 0 5.77926 0 4.80923V2.46697C0 1.49695 0.94688 0.710938 2.11544 0.710938ZM2.11544 8.57422H4.93708C6.10563 8.57422 7.05251 9.36023 7.05251 10.3303V12.6725C7.05251 13.6419 6.10563 14.4285 4.93708 14.4285H2.11544C0.94688 14.4285 0 13.6419 0 12.6725V10.3303C0 9.36023 0.94688 8.57422 2.11544 8.57422ZM14.5543 8.57422H11.7326C10.5641 8.57422 9.61719 9.36023 9.61719 10.3303V12.6725C9.61719 13.6419 10.5641 14.4285 11.7326 14.4285H14.5543C15.7228 14.4285 16.6697 13.6419 16.6697 12.6725V10.3303C16.6697 9.36023 15.7228 8.57422 14.5543 8.57422Z" fill="#009D00"/>
</svg>
