<svg width="24" height="25" viewBox="0 0 24 25" fill="none" xmlns="http://www.w3.org/2000/svg">
<path d="M12 5.3761L11.2984 4.66352L12 3.97273L12.7016 4.66352L12 5.3761ZM13 14.2375C13 14.7898 12.5523 15.2375 12 15.2375C11.4477 15.2375 11 14.7898 11 14.2375L13 14.2375ZM6.2984 9.58651L11.2984 4.66352L12.7016 6.08867L7.7016 11.0117L6.2984 9.58651ZM12.7016 4.66352L17.7016 9.58651L16.2984 11.0117L11.2984 6.08867L12.7016 4.66352ZM13 5.3761L13 14.2375L11 14.2375L11 5.3761L13 5.3761Z" fill="white"/>
<path d="M5 16.2067L5 17.1913C5 18.2788 5.89543 19.1605 7 19.1605L17 19.1605C18.1046 19.1605 19 18.2788 19 17.1913V16.2067" stroke="white" stroke-width="2"/>
</svg>
