<svg width="12" height="18" viewBox="0 0 12 18" fill="none" xmlns="http://www.w3.org/2000/svg">
<path d="M5.83061 17.9055V0.178266H6.96626V17.9055H5.83061ZM9.106 5.84961C9.04137 5.24485 8.769 4.77397 8.28889 4.43697C7.81339 4.09996 7.19478 3.93146 6.43306 3.93146C5.89755 3.93146 5.43821 4.01225 5.05504 4.17383C4.67188 4.3354 4.37873 4.55469 4.1756 4.83168C3.97248 5.10866 3.86861 5.42489 3.86399 5.78036C3.86399 6.07582 3.93093 6.33203 4.06481 6.54901C4.2033 6.76598 4.39027 6.95064 4.62571 7.10298C4.86115 7.25071 5.12198 7.37535 5.4082 7.47692C5.69442 7.57848 5.98295 7.66388 6.27379 7.73313L7.60334 8.06552C8.13885 8.19016 8.65359 8.35866 9.14755 8.57102C9.64613 8.78338 10.0916 9.05114 10.484 9.37429C10.881 9.69744 11.195 10.0875 11.4258 10.5446C11.6566 11.0016 11.772 11.5371 11.772 12.1511C11.772 12.9821 11.5597 13.7138 11.1349 14.3462C10.7102 14.9741 10.0962 15.4657 9.29297 15.8212C8.49432 16.1721 7.52717 16.3475 6.39151 16.3475C5.28817 16.3475 4.33026 16.1767 3.51776 15.835C2.70987 15.4934 2.07741 14.9949 1.62038 14.3393C1.16797 13.6838 0.923295 12.8851 0.886364 11.9434H3.41389C3.45082 12.4373 3.60316 12.8482 3.87092 13.176C4.13867 13.5037 4.48722 13.7484 4.91655 13.91C5.3505 14.0716 5.83523 14.1523 6.37074 14.1523C6.92933 14.1523 7.41868 14.0692 7.83878 13.9031C8.26349 13.7322 8.59588 13.4968 8.83594 13.1967C9.07599 12.892 9.19833 12.5366 9.20295 12.1303C9.19833 11.761 9.08984 11.4563 8.87749 11.2163C8.66513 10.9716 8.36737 10.7685 7.9842 10.6069C7.60565 10.4407 7.16246 10.293 6.65465 10.1637L5.04119 9.74822C3.87322 9.44815 2.94993 8.99343 2.27131 8.38406C1.5973 7.77006 1.2603 6.95526 1.2603 5.93963C1.2603 5.10405 1.48651 4.37234 1.93892 3.7445C2.39595 3.11665 3.01687 2.62962 3.80167 2.28338C4.58647 1.93253 5.47514 1.7571 6.46769 1.7571C7.47408 1.7571 8.35582 1.93253 9.11293 2.28338C9.87465 2.62962 10.4725 3.11204 10.9064 3.73065C11.3404 4.34464 11.5643 5.05096 11.5781 5.84961H9.106Z" fill="white"/>
</svg>
