<svg width="24" height="25" viewBox="0 0 24 25" fill="none" xmlns="http://www.w3.org/2000/svg">
<path d="M20.6933 17.871C21.0506 16.5581 21.0964 15.1819 20.8271 13.8488C20.5577 12.5157 19.9806 11.2614 19.1402 10.1831C18.2998 9.10475 17.2187 8.2312 15.9806 7.63004C14.7425 7.02887 13.3805 6.71619 12 6.71619C10.6195 6.71619 9.25752 7.02887 8.0194 7.63004C6.78128 8.2312 5.70021 9.10475 4.85982 10.1831C4.01943 11.2614 3.44225 12.5157 3.17293 13.8488C2.90361 15.1819 2.94937 16.5581 3.30667 17.871" stroke="white" stroke-width="2" stroke-linecap="round"/>
<path d="M12.7657 16.1509C13.2532 16.8493 12.9104 17.9148 12 18.5308C11.0897 19.1467 9.95652 19.0798 9.46905 18.3814C8.95019 17.638 7.16056 13.462 6.07115 10.8723C5.86417 10.3803 6.47179 9.96917 6.86409 10.3358C8.92893 12.2655 12.2468 15.4075 12.7657 16.1509Z" stroke="white" stroke-width="2"/>
<path d="M12 6.71619V8.68538" stroke="white" stroke-width="2" stroke-linecap="round"/>
<path d="M5.63599 9.31128L7.0502 10.7037" stroke="white" stroke-width="2" stroke-linecap="round"/>
<path d="M18.364 9.31128L16.9498 10.7037" stroke="white" stroke-width="2" stroke-linecap="round"/>
<path d="M20.6934 17.8707L18.7615 17.3611" stroke="white" stroke-width="2" stroke-linecap="round"/>
<path d="M3.30664 17.8707L5.23849 17.3611" stroke="white" stroke-width="2" stroke-linecap="round"/>
</svg>
