<svg width="19" height="19" viewBox="0 0 19 19" fill="none" xmlns="http://www.w3.org/2000/svg">
<path d="M11.4792 4.47554C11.4792 3.72915 11.4792 3.35596 11.711 3.12409C11.9429 2.89221 12.3161 2.89221 13.0625 2.89221H15.4375C16.1839 2.89221 16.5571 2.89221 16.789 3.12409C17.0208 3.35596 17.0208 3.72915 17.0208 4.47555V14.5599C17.0208 15.3063 17.0208 15.6795 16.789 15.9114C16.5571 16.1432 16.1839 16.1432 15.4375 16.1432H13.0625C12.3161 16.1432 11.9429 16.1432 11.711 15.9114C11.4792 15.6795 11.4792 15.3063 11.4792 14.5599V4.47554Z" stroke="white" stroke-width="0.791667"/>
<path d="M13.0625 13.4212C13.0625 13.2346 13.0625 13.1413 13.1205 13.0834C13.1784 13.0254 13.2717 13.0254 13.4583 13.0254H15.0417C15.2283 13.0254 15.3216 13.0254 15.3795 13.0834C15.4375 13.1413 15.4375 13.2346 15.4375 13.4212V14.1885C15.4375 14.3751 15.4375 14.4684 15.3795 14.5264C15.3216 14.5843 15.2283 14.5843 15.0417 14.5843H13.4583C13.2717 14.5843 13.1784 14.5843 13.1205 14.5264C13.0625 14.4684 13.0625 14.3751 13.0625 14.1885V13.4212Z" stroke="white" stroke-width="0.791667"/>
<path d="M13.0625 5.23059H15.4375" stroke="white" stroke-width="0.791667" stroke-linecap="round"/>
<path d="M13.0625 7.56909H15.4375" stroke="white" stroke-width="0.791667" stroke-linecap="round"/>
<path d="M11.4792 11.4664H17.0208" stroke="white" stroke-width="0.791667" stroke-linecap="round"/>
<path d="M14.6445 2.89221H8.3112C7.56481 2.89221 7.19161 2.89221 6.95974 3.12409C6.72786 3.35596 6.72786 3.72915 6.72786 4.47554V14.5599C6.72786 15.3063 6.72786 15.6795 6.95974 15.9114C7.19161 16.1432 7.56481 16.1432 8.3112 16.1432H14.6445" stroke="white" stroke-width="0.791667" stroke-linecap="round"/>
<path d="M10.2904 13.0254H8.70703C8.52043 13.0254 8.42713 13.0254 8.36916 13.0834C8.3112 13.1413 8.3112 13.2346 8.3112 13.4212V14.1885C8.3112 14.3751 8.3112 14.4684 8.36916 14.5264C8.42713 14.5843 8.52043 14.5843 8.70703 14.5843H10.2904" stroke="white" stroke-width="0.791667"/>
<path d="M8.3112 4.83476C8.09258 4.83476 7.91536 5.01198 7.91536 5.23059C7.91536 5.4492 8.09258 5.62642 8.3112 5.62642V4.83476ZM8.3112 5.62642H10.2904V4.83476H8.3112V5.62642Z" fill="white"/>
<path d="M8.3112 7.17326C8.09258 7.17326 7.91536 7.35048 7.91536 7.56909C7.91536 7.7877 8.09258 7.96493 8.3112 7.96493V7.17326ZM8.3112 7.96493H10.2904V7.17326H8.3112V7.96493Z" fill="white"/>
<path d="M6.72786 11.4664H10.2904" stroke="white" stroke-width="0.791667"/>
<path d="M9.89453 2.89221H3.5612C2.81481 2.89221 2.44161 2.89221 2.20974 3.12409C1.97786 3.35596 1.97786 3.72915 1.97786 4.47554V14.5599C1.97786 15.3063 1.97786 15.6795 2.20974 15.9114C2.44161 16.1432 2.81481 16.1432 3.5612 16.1432H9.89453" stroke="white" stroke-width="0.791667" stroke-linecap="round"/>
<path d="M5.54036 13.0254H3.95703C3.77043 13.0254 3.67713 13.0254 3.61916 13.0834C3.5612 13.1413 3.5612 13.2346 3.5612 13.4212V14.1885C3.5612 14.3751 3.5612 14.4684 3.61916 14.5264C3.67713 14.5843 3.77043 14.5843 3.95703 14.5843H5.54036" stroke="white" stroke-width="0.791667"/>
<path d="M3.5612 4.83476C3.34258 4.83476 3.16536 5.01198 3.16536 5.23059C3.16536 5.4492 3.34258 5.62642 3.5612 5.62642V4.83476ZM3.5612 5.62642H5.54036V4.83476H3.5612V5.62642Z" fill="white"/>
<path d="M3.5612 7.17326C3.34258 7.17326 3.16536 7.35048 3.16536 7.56909C3.16536 7.7877 3.34258 7.96493 3.5612 7.96493V7.17326ZM3.5612 7.96493H5.54036V7.17326H3.5612V7.96493Z" fill="white"/>
<path d="M1.97786 11.4664H5.54036" stroke="white" stroke-width="0.791667"/>
</svg>
