<svg width="24" height="25" viewBox="0 0 24 25" fill="none" xmlns="http://www.w3.org/2000/svg">
<path d="M18.5 11.6547V8.27026C18.5 6.38465 18.5 5.44184 17.9142 4.85605C17.3284 4.27026 16.3856 4.27026 14.5 4.27026H9.5C7.61438 4.27026 6.67157 4.27026 6.08579 4.85605C5.5 5.44184 5.5 6.38465 5.5 8.27026V8.70095" stroke="white" stroke-opacity="0.25" stroke-width="1.2"/>
<path d="M12.2984 11.3828C12.4855 11.567 12.7375 11.6702 13 11.6702H17.8C18.3766 11.6702 18.7488 11.671 19.0322 11.6941C19.3038 11.7163 19.4045 11.754 19.454 11.7792C19.6422 11.8751 19.7951 12.0281 19.891 12.2162L20.7466 11.7803L19.891 12.2162C19.9162 12.2657 19.9539 12.3664 19.9761 12.6381C19.9992 12.9214 20 13.2937 20 13.8702V18.3008C20 18.8773 19.9992 19.2496 19.9761 19.5329C19.9539 19.8046 19.9162 19.9053 19.891 19.9548C19.7951 20.1429 19.6422 20.2959 19.454 20.3918C19.4045 20.417 19.3038 20.4547 19.0322 20.4769C18.7488 20.5 18.3766 20.5008 17.8 20.5008H6.2C5.62345 20.5008 5.25117 20.5 4.96784 20.4769C4.69617 20.4547 4.59545 20.417 4.54601 20.3918C4.35785 20.2959 4.20487 20.1429 4.10899 19.9548C4.0838 19.9053 4.04612 19.8046 4.02393 19.5329C4.00078 19.2496 4 18.8773 4 18.3008V10.9164C4 10.3399 4.00078 9.9676 4.02393 9.68427C4.04612 9.4126 4.0838 9.31188 4.10899 9.26244C4.20487 9.07428 4.35785 8.9213 4.54601 8.82542C4.59545 8.80023 4.69617 8.76255 4.96784 8.74036C5.25117 8.71721 5.62345 8.71643 6.2 8.71643H8.68904C9.22007 8.71643 9.32433 8.72273 9.41183 8.74352C9.51291 8.76754 9.60963 8.80716 9.69851 8.86096L10.2164 8.0055L9.69851 8.86096C9.77545 8.90754 9.85416 8.9762 10.2326 9.34877L12.2984 11.3828Z" stroke="white" stroke-width="2" stroke-linejoin="round"/>
</svg>
