<svg width="24" height="24" viewBox="0 0 24 24" fill="none" xmlns="http://www.w3.org/2000/svg">
<path d="M15 7.94711C15 9.55536 13.6715 10.8855 12 10.8855C10.3285 10.8855 9 9.55536 9 7.94711C9 6.33887 10.3285 5.00873 12 5.00873C13.6715 5.00873 15 6.33887 15 7.94711Z" stroke="white" stroke-width="2" stroke-linecap="round"/>
<path d="M15.2646 7.96063C15.5271 7.51282 15.9625 7.18163 16.4786 7.04547C16.9951 6.90922 17.5449 6.98096 18.0058 7.24299C18.4662 7.50473 18.7977 7.933 18.9329 8.42979C19.068 8.92617 18.9977 9.45554 18.7354 9.90276C18.4729 10.3506 18.0375 10.6818 17.5214 10.8179C17.0049 10.9542 16.4551 10.8824 15.9942 10.6204C15.5338 10.3587 15.2023 9.93039 15.0671 9.4336C14.932 8.93722 15.0023 8.40785 15.2646 7.96063L15.2646 7.96063Z" stroke="white" stroke-width="2"/>
<path d="M5.26456 7.96063C5.52715 7.51282 5.96252 7.18163 6.47864 7.04547C6.99506 6.90922 7.54486 6.98096 8.00581 7.24299C8.46624 7.50473 8.79767 7.933 8.93287 8.42979C9.06796 8.92617 8.99769 9.45554 8.73544 9.90276C8.47285 10.3506 8.03748 10.6818 7.52136 10.8179C7.00494 10.9542 6.45514 10.8824 5.99419 10.6204C5.53376 10.3587 5.20233 9.93039 5.06713 9.4336C4.93204 8.93722 5.00231 8.40785 5.26456 7.96063L5.26456 7.96063Z" stroke="white" stroke-width="2"/>
<path d="M16.8816 17.7931L15.9008 17.9878L16.0606 18.7931H16.8816V17.7931ZM20.714 16.697L21.6539 16.3554L20.714 16.697ZM14.7808 14.5543L14.1819 13.7534L13.0007 14.6368L14.2586 15.4071L14.7808 14.5543ZM16.8804 17.7873L17.86 17.586L17.86 17.586L16.8804 17.7873ZM19.865 16.7931H16.8816V18.7931H19.865V16.7931ZM19.7742 17.0387C19.7668 17.0184 19.7599 16.9798 19.7682 16.9327C19.7761 16.888 19.7945 16.8541 19.8119 16.8324C19.845 16.791 19.8723 16.7931 19.865 16.7931V18.7931C21.0093 18.7931 22.1464 17.7101 21.6539 16.3554L19.7742 17.0387ZM17 14.8547C18.6429 14.8547 19.4005 16.0107 19.7742 17.0387L21.6539 16.3554C21.1803 15.0527 19.9249 12.8547 17 12.8547V14.8547ZM15.3797 15.3551C15.7642 15.0676 16.2781 14.8547 17 14.8547V12.8547C15.842 12.8547 14.9087 13.2099 14.1819 13.7534L15.3797 15.3551ZM14.2586 15.4071C15.2943 16.0413 15.7271 17.1429 15.9009 17.9886L17.86 17.586C17.6398 16.5144 17.0294 14.7586 15.303 13.7015L14.2586 15.4071ZM15.9009 17.9885L15.9008 17.9878L17.8625 17.5983C17.8616 17.5942 17.8608 17.5901 17.86 17.586L15.9009 17.9885Z" fill="white"/>
<path d="M9.21918 14.5542L9.7414 15.4071L10.9993 14.6368L9.81807 13.7534L9.21918 14.5542ZM3.28597 16.697L2.34615 16.3554L3.28597 16.697ZM7.11837 17.7931V18.7931H7.93943L8.09924 17.9877L7.11837 17.7931ZM7.11954 17.7873L6.14001 17.586L6.14001 17.586L7.11954 17.7873ZM7.00001 14.8547C7.72194 14.8547 8.23584 15.0676 8.62028 15.3551L9.81807 13.7534C9.09125 13.2099 8.15799 12.8547 7.00001 12.8547V14.8547ZM4.22578 17.0387C4.59955 16.0107 5.35708 14.8547 7.00001 14.8547V12.8547C4.07516 12.8547 2.81976 15.0527 2.34615 16.3554L4.22578 17.0387ZM4.13498 16.7931C4.12775 16.7931 4.15503 16.791 4.18815 16.8324C4.20555 16.8541 4.22389 16.888 4.23179 16.9327C4.24014 16.9798 4.23316 17.0184 4.22578 17.0387L2.34615 16.3554C1.85364 17.7101 2.99067 18.7931 4.13498 18.7931V16.7931ZM7.11837 16.7931H4.13498V18.7931H7.11837V16.7931ZM8.09924 17.9877L8.09907 17.9886L6.14001 17.586C6.13917 17.5901 6.13833 17.5942 6.1375 17.5984L8.09924 17.9877ZM8.09907 17.9886C8.27286 17.1429 8.70565 16.0413 9.7414 15.4071L8.69696 13.7014C6.97062 14.7586 6.36022 16.5144 6.14001 17.586L8.09907 17.9886Z" fill="white"/>
<path d="M12 13.8547C15.5595 13.8547 16.585 16.3497 16.8804 17.7873C16.9916 18.3283 16.5523 18.7777 16 18.7777H8C7.44772 18.7777 7.00838 18.3283 7.11956 17.7873C7.415 16.3497 8.44048 13.8547 12 13.8547Z" stroke="white" stroke-width="2" stroke-linecap="round"/>
</svg>
